<svg xmlns="http://www.w3.org/2000/svg" viewBox="0 0 48 48" width="48" height="48">
  <rect width="48" height="48" rx="10" fill="#07C160"/>
  <path d="M18 16c-5.5 0-10 3.7-10 8.2 0 2.5 1.3 4.8 3.4 6.3l-.8 2.5 2.9-1.5c1.4.4 2.9.6 4.5.6.5 0 1 0 1.5-.1-1-2.3-1.5-4.8-1.5-7.5C17.9 18.6 22.1 14 28 14c1.2 0 2.4.2 3.5.5C30 12.5 24.5 16 18 16z" fill="#fff"/>
  <path d="M28 19c-4.4 0-8 2.9-8 6.5 0 3.6 3.6 6.5 8 6.5 1.2 0 2.4-.2 3.5-.6l2.5 1.3-.7-2.1c1.6-1.3 2.7-3.1 2.7-5.1 0-3.6-3.6-6.5-8-6.5z" fill="#fff"/>
  <circle cx="25" cy="24" r="1.5" fill="#07C160"/>
  <circle cx="31" cy="24" r="1.5" fill="#07C160"/>
</svg>
