<svg xmlns="http://www.w3.org/2000/svg" viewBox="0 0 200 200" width="200" height="200"><defs><linearGradient id="zg" x1="0%" y1="0%" x2="100%" y2="100%"><stop offset="0%" style="stop-color:#0173de"/><stop offset="100%" style="stop-color:#4cd964"/></linearGradient><linearGradient id="zg-light" x1="0%" y1="0%" x2="100%" y2="100%"><stop offset="0%" style="stop-color:#3a9fef;stop-opacity:.3"/><stop offset="100%" style="stop-color:#7ee89a;stop-opacity:.2"/></linearGradient></defs><circle cx="100" cy="100" r="96" fill="url(#zg)"/><circle cx="70" cy="65" r="30" fill="url(#zg-light)"/><circle cx="140" cy="135" r="22" fill="url(#zg-light)"/><g fill="none" stroke="#fff" stroke-width="5" stroke-linecap="round" stroke-linejoin="round"><path d="M100 75 Q68 55 52 78 Q48 95 58 108 Q72 98 100 95" fill="rgba(255,255,255,.15)" stroke-width="4"/><path d="M100 75 Q132 55 148 78 Q152 95 142 108 Q128 98 100 95" fill="rgba(255,255,255,.15)" stroke-width="4"/><ellipse cx="100" cy="102" rx="16" ry="24" fill="rgba(255,255,255,.2)"/><circle cx="94" cy="94" r="4" fill="#fff"/><path d="M92 82 Q86 70 80 66" stroke-width="3"/><path d="M100 80 Q104 68 110 64" stroke-width="3"/></g><text x="100" y="168" text-anchor="middle" fill="#fff" font-family="Arial,sans-serif" font-size="28" font-weight="bold" letter-spacing="6">ZL</text></svg>